<?xml version="1.0" encoding="UTF-8" standalone="no" ?>
<!DOCTYPE svg PUBLIC "-//W3C//DTD SVG 1.1//EN" "http://www.w3.org/Graphics/SVG/1.1/DTD/svg11.dtd">
<svg xmlns="http://www.w3.org/2000/svg" xmlns:xlink="http://www.w3.org/1999/xlink" version="1.1" width="1080" height="1080" viewBox="0 0 1080 1080" xml:space="preserve">
<desc>Created with Fabric.js 5.2.4</desc>
<defs>
</defs>
<rect x="0" y="0" width="100%" height="100%" fill="transparent"></rect>
<g transform="matrix(1 0 0 1 540 540)" id="a7a5ce17-ee7c-4964-8150-41786e770d15"  >
</g>
<g transform="matrix(1 0 0 1 540 540)" id="78c9294e-7e21-4e97-b872-7672c57044b9"  >
<rect style="stroke: none; stroke-width: 1; stroke-dasharray: none; stroke-linecap: butt; stroke-dashoffset: 0; stroke-linejoin: miter; stroke-miterlimit: 4; fill: rgb(255,255,255); fill-rule: nonzero; opacity: 1; visibility: hidden;" vector-effect="non-scaling-stroke"  x="-540" y="-540" rx="0" ry="0" width="1080" height="1080" />
</g>
<g transform="matrix(10.21 0 0 11.75 544.95 545.13)" id="d399a774-8b95-4220-bf88-022f8d7d3ce2"  >
<rect style="stroke: rgb(0,0,0); stroke-width: 10; stroke-dasharray: none; stroke-linecap: butt; stroke-dashoffset: 0; stroke-linejoin: miter; stroke-miterlimit: 4; fill: rgb(54,172,54); fill-rule: nonzero; opacity: 1;" vector-effect="non-scaling-stroke"  x="-33.085" y="-33.085" rx="0" ry="0" width="66.17" height="66.17" />
</g>
<g transform="matrix(4.39 0 0 5.72 351.89 345.6)" id="08ed5d2f-042c-4c6e-9e12-ecc47fe5234f"  >
<rect style="stroke: rgb(0,0,0); stroke-width: 9; stroke-dasharray: none; stroke-linecap: butt; stroke-dashoffset: 0; stroke-linejoin: miter; stroke-miterlimit: 4; fill: rgb(133,133,133); fill-rule: nonzero; opacity: 1;" vector-effect="non-scaling-stroke"  x="-33.085" y="-33.085" rx="0" ry="0" width="66.17" height="66.17" />
</g>
<g transform="matrix(5.82 0 0 7.62 689.35 409.58)" id="08ed5d2f-042c-4c6e-9e12-ecc47fe5234f"  >
<rect style="stroke: rgb(0,0,0); stroke-width: 9; stroke-dasharray: none; stroke-linecap: butt; stroke-dashoffset: 0; stroke-linejoin: miter; stroke-miterlimit: 4; fill: rgb(133,133,133); fill-rule: nonzero; opacity: 1;" vector-effect="non-scaling-stroke"  x="-33.085" y="-33.085" rx="0" ry="0" width="66.17" height="66.17" />
</g>
<g transform="matrix(4.38 0 0 6 352.68 735.63)" id="08ed5d2f-042c-4c6e-9e12-ecc47fe5234f"  >
<rect style="stroke: rgb(0,0,0); stroke-width: 9; stroke-dasharray: none; stroke-linecap: butt; stroke-dashoffset: 0; stroke-linejoin: miter; stroke-miterlimit: 4; fill: rgb(133,133,133); fill-rule: nonzero; opacity: 1;" vector-effect="non-scaling-stroke"  x="-33.085" y="-33.085" rx="0" ry="0" width="66.17" height="66.17" />
</g>
<g transform="matrix(0.95 0 0 0.23 745.47 661.54)" id="aa546e8e-b1ba-4a4d-a9d1-7e09266b04ca"  >
<rect style="stroke: rgb(0,0,0); stroke-width: 0; stroke-dasharray: none; stroke-linecap: butt; stroke-dashoffset: 0; stroke-linejoin: miter; stroke-miterlimit: 4; fill: rgb(88,46,6); fill-rule: nonzero; opacity: 1;" vector-effect="non-scaling-stroke"  x="-33.085" y="-33.085" rx="0" ry="0" width="66.17" height="66.17" />
</g>
<g transform="matrix(0 -1 0.24 0 497.23 602.19)" id="aa546e8e-b1ba-4a4d-a9d1-7e09266b04ca"  >
<rect style="stroke: rgb(0,0,0); stroke-width: 0; stroke-dasharray: none; stroke-linecap: butt; stroke-dashoffset: 0; stroke-linejoin: miter; stroke-miterlimit: 4; fill: rgb(88,46,6); fill-rule: nonzero; opacity: 1;" vector-effect="non-scaling-stroke"  x="-33.085" y="-33.085" rx="0" ry="0" width="66.17" height="66.17" />
</g>
<g transform="matrix(0 -1 0.21 0 496.29 233.46)" id="aa546e8e-b1ba-4a4d-a9d1-7e09266b04ca"  >
<rect style="stroke: rgb(0,0,0); stroke-width: 0; stroke-dasharray: none; stroke-linecap: butt; stroke-dashoffset: 0; stroke-linejoin: miter; stroke-miterlimit: 4; fill: rgb(88,46,6); fill-rule: nonzero; opacity: 1;" vector-effect="non-scaling-stroke"  x="-33.085" y="-33.085" rx="0" ry="0" width="66.17" height="66.17" />
</g>
<g transform="matrix(1.18 0 0 1.18 567.38 800.78)" id="2decb15a-2017-4d34-8893-96be576fcf0b"  >
<polygon style="stroke: rgb(0,0,0); stroke-width: 0; stroke-dasharray: none; stroke-linecap: butt; stroke-dashoffset: 0; stroke-linejoin: miter; stroke-miterlimit: 4; fill: rgb(29,101,0); fill-rule: nonzero; opacity: 1;" vector-effect="non-scaling-stroke"  points="-18.54,32.11 -37.08,0 -18.54,-32.11 18.54,-32.11 37.08,0 18.54,32.11 " />
</g>
<g transform="matrix(1 0 0 1 350.63 332.88)"  >
<path style="stroke: rgb(0,0,0); stroke-width: 0; stroke-dasharray: none; stroke-linecap: butt; stroke-dashoffset: 0; stroke-linejoin: miter; stroke-miterlimit: 4; fill: rgb(166,29,29); fill-rule: nonzero; opacity: 1;" vector-effect="non-scaling-stroke"  transform=" translate(-50, -50)" d="M 81.866 18.883 C 78.577 15.594 74.54 13.998999999999999 69.80799999999999 14.049 C 62.38099999999999 14.149 56.001999999999995 18.183999999999997 50.773999999999994 26.208 L 50.773999999999994 26.157999999999998 L 49.47599999999999 28.549 C 49.47599999999999 28.549 48.92999999999999 27.502 48.129999999999995 26.058 L 48.129999999999995 26.257 C 46.187 22.271 43.69799999999999 19.330000000000002 40.706999999999994 17.337000000000003 C 37.71699999999999 15.394000000000004 34.37899999999999 14.446000000000003 30.791999999999994 14.446000000000003 C 26.056999999999995 14.496000000000004 21.919999999999995 16.041000000000004 18.383999999999993 18.981 C 14.843999999999994 21.972 13.151999999999994 25.808 13.151999999999994 30.441000000000003 C 13.199999999999994 32.036 13.700999999999993 34.378 14.645999999999994 37.418000000000006 C 16.440999999999995 41.952000000000005 21.076999999999995 47.83200000000001 28.697999999999993 55.10600000000001 C 36.27199999999999 62.38100000000001 41.556 67.81200000000001 44.49499999999999 71.4 C 47.48499999999999 74.938 49.42899999999999 79.822 50.32499999999999 85.95100000000001 C 51.07399999999999 80.569 53.86099999999999 75.138 58.79599999999999 69.756 C 63.72999999999999 64.324 69.359 58.346000000000004 75.73899999999999 51.769000000000005 C 82.06599999999999 45.19200000000001 85.60199999999999 40.159000000000006 86.303 36.62100000000001 C 86.7 35.37600000000001 86.849 33.732000000000006 86.849 31.640000000000008 C 86.8 26.457 85.104 22.172 81.866 18.883 z" stroke-linecap="round" />
</g>
<g transform="matrix(-0.7 0 0 -0.7 248.88 630.58)" id="97a67e2b-145a-4933-b87b-4789db61ed3e"  >
<rect style="stroke: rgb(0,0,0); stroke-width: 0; stroke-dasharray: none; stroke-linecap: butt; stroke-dashoffset: 0; stroke-linejoin: miter; stroke-miterlimit: 4; fill: rgb(255,255,255); fill-rule: nonzero; opacity: 1;" vector-effect="non-scaling-stroke"  x="-33.085" y="-33.085" rx="0" ry="0" width="66.17" height="66.17" />
</g>
<g transform="matrix(-0.7 0 0 -0.7 269.55 630.58)" id="5d61f60c-9e2a-4716-abfc-bbb3848b7a67"  >
<rect style="stroke: rgb(0,0,0); stroke-width: 0; stroke-dasharray: none; stroke-linecap: butt; stroke-dashoffset: 0; stroke-linejoin: miter; stroke-miterlimit: 4; fill: rgb(164,18,18); fill-rule: nonzero; opacity: 1;" vector-effect="non-scaling-stroke"  x="-33.085" y="-33.085" rx="0" ry="0" width="66.17" height="66.17" />
</g>
<g transform="matrix(-0.7 0 0 -0.7 247.04 732.31)" id="97a67e2b-145a-4933-b87b-4789db61ed3e"  >
<rect style="stroke: rgb(0,0,0); stroke-width: 0; stroke-dasharray: none; stroke-linecap: butt; stroke-dashoffset: 0; stroke-linejoin: miter; stroke-miterlimit: 4; fill: rgb(255,255,255); fill-rule: nonzero; opacity: 1;" vector-effect="non-scaling-stroke"  x="-33.085" y="-33.085" rx="0" ry="0" width="66.17" height="66.17" />
</g>
<g transform="matrix(-0.7 0 0 -0.7 267.71 732.31)" id="5d61f60c-9e2a-4716-abfc-bbb3848b7a67"  >
<rect style="stroke: rgb(0,0,0); stroke-width: 0; stroke-dasharray: none; stroke-linecap: butt; stroke-dashoffset: 0; stroke-linejoin: miter; stroke-miterlimit: 4; fill: rgb(164,18,18); fill-rule: nonzero; opacity: 1;" vector-effect="non-scaling-stroke"  x="-33.085" y="-33.085" rx="0" ry="0" width="66.17" height="66.17" />
</g>
<g transform="matrix(-0.7 0 0 -0.7 245.2 834.04)" id="97a67e2b-145a-4933-b87b-4789db61ed3e"  >
<rect style="stroke: rgb(0,0,0); stroke-width: 0; stroke-dasharray: none; stroke-linecap: butt; stroke-dashoffset: 0; stroke-linejoin: miter; stroke-miterlimit: 4; fill: rgb(255,255,255); fill-rule: nonzero; opacity: 1;" vector-effect="non-scaling-stroke"  x="-33.085" y="-33.085" rx="0" ry="0" width="66.17" height="66.17" />
</g>
<g transform="matrix(-0.7 0 0 -0.7 265.87 834.04)" id="5d61f60c-9e2a-4716-abfc-bbb3848b7a67"  >
<rect style="stroke: rgb(0,0,0); stroke-width: 0; stroke-dasharray: none; stroke-linecap: butt; stroke-dashoffset: 0; stroke-linejoin: miter; stroke-miterlimit: 4; fill: rgb(164,18,18); fill-rule: nonzero; opacity: 1;" vector-effect="non-scaling-stroke"  x="-33.085" y="-33.085" rx="0" ry="0" width="66.17" height="66.17" />
</g>
<g transform="matrix(1 0 0 1 540 540)"  >
<g style="" vector-effect="non-scaling-stroke"   >
		<g transform="matrix(1 0 0 1 0.21 -14.89)"  >
<ellipse style="stroke: none; stroke-width: 1; stroke-dasharray: none; stroke-linecap: butt; stroke-dashoffset: 0; stroke-linejoin: miter; stroke-miterlimit: 4; fill: rgb(101,101,101); fill-rule: nonzero; opacity: 1;" vector-effect="non-scaling-stroke"  cx="0" cy="0" rx="18.519" ry="20.634" />
</g>
		<g transform="matrix(1 0 0 1 0 20.01)"  >
<polygon style="stroke: none; stroke-width: 1; stroke-dasharray: none; stroke-linecap: butt; stroke-dashoffset: 0; stroke-linejoin: miter; stroke-miterlimit: 4; fill: rgb(101,101,101); fill-rule: nonzero; opacity: 1;" vector-effect="non-scaling-stroke"  points="-17.95,-15.45 -17.28,-15.45 -16.87,-15.35 -16.46,-15.19 -16.04,-14.99 -15.68,-14.73 -15.22,-14.37 -14.8,-13.9 -14.34,-13.28 -13.88,-12.61 -13.41,-11.84 -13,-10.91 -12.54,-9.98 -12.12,-8.95 -11.71,-7.81 -11.35,-6.68 -10.99,-5.55 -10.63,-4.31 -10.27,-3.12 -9.9,-1.94 -9.54,-0.7 -9.23,0.49 -8.87,1.67 -8.46,2.81 -8.1,3.95 -7.63,5.03 -7.12,6.17 -6.55,7.19 -5.78,8.28 -4.8,9.36 -3.51,10.34 -1.85,11.01 0,11.27 1.91,11.01 3.56,10.29 4.9,9.31 5.83,8.23 6.55,7.14 7.17,6.06 7.69,4.92 8.1,3.84 8.51,2.66 8.87,1.52 9.23,0.34 9.6,-0.85 9.96,-2.09 10.32,-3.33 10.68,-4.51 11.04,-5.7 11.45,-6.89 11.86,-8.02 12.28,-9.11 12.74,-10.14 13.21,-11.06 13.72,-11.94 14.19,-12.72 14.7,-13.39 15.22,-13.95 15.68,-14.42 16.15,-14.73 16.66,-15.04 17.13,-15.24 17.69,-15.4 18.31,-15.45 19.24,-15.5 19.86,-15.45 20.38,-15.4 20.89,-15.35 21.41,-15.24 21.87,-15.14 22.39,-15.04 22.85,-14.88 23.27,-14.68 23.73,-14.52 24.14,-14.32 24.55,-14.06 24.92,-13.85 25.28,-13.59 25.64,-13.33 26,-13.03 26.31,-12.77 26.62,-12.46 26.88,-12.15 27.13,-11.84 27.39,-11.53 27.6,-11.22 27.81,-10.91 28.01,-10.65 28.16,-10.34 28.27,-10.09 28.37,-9.78 28.48,-9.57 28.53,-9.31 28.58,-9.16 28.63,-8.95 28.63,-8.85 28.63,-8.64 28.63,11.73 28.63,12.2 28.58,12.56 28.48,12.92 28.37,13.23 28.22,13.54 28.01,13.85 27.81,14.11 27.55,14.37 27.24,14.62 26.93,14.88 26.62,15.04 26.26,15.19 25.9,15.34 25.53,15.45 25.12,15.5 24.61,15.5 -24.61,15.5 -25.12,15.5 -25.48,15.45 -25.9,15.34 -26.26,15.19 -26.62,15.04 -26.93,14.88 -27.24,14.62 -27.5,14.37 -27.75,14.11 -27.96,13.85 -28.16,13.54 -28.32,13.23 -28.42,12.92 -28.53,12.56 -28.58,12.2 -28.63,11.73 -28.63,-8.64 -28.63,-8.8 -28.58,-8.85 -28.58,-9 -28.53,-9.16 -28.47,-9.36 -28.37,-9.57 -28.27,-9.83 -28.11,-10.09 -27.91,-10.4 -27.7,-10.7 -27.5,-11.01 -27.24,-11.32 -26.93,-11.63 -26.62,-11.94 -26.31,-12.25 -25.95,-12.56 -25.59,-12.87 -25.17,-13.18 -24.76,-13.44 -24.3,-13.7 -23.83,-13.95 -23.37,-14.21 -22.9,-14.42 -22.39,-14.62 -21.87,-14.83 -21.3,-14.99 -20.79,-15.14 -20.22,-15.24 -19.66,-15.35 -19.03,-15.4 -18.47,-15.45 " />
</g>
</g>
</g>
<g transform="matrix(1 0 0 1 540 540)" id="2813a0f7-2a22-4921-9011-26f825636478"  >
<rect style="stroke: rgb(0,0,0); stroke-width: 0; stroke-dasharray: none; stroke-linecap: butt; stroke-dashoffset: 0; stroke-linejoin: miter; stroke-miterlimit: 4; fill: rgb(101,101,101); fill-rule: nonzero; opacity: 1;" vector-effect="non-scaling-stroke"  x="-33.085" y="-33.085" rx="0" ry="0" width="66.17" height="66.17" />
</g>
<g transform="matrix(1 0 0 0.71 992.72 483.07)" id="ac8d1885-90a5-4079-be55-cf8bbd3a7f04"  >
<rect style="stroke: rgb(0,0,0); stroke-width: 0; stroke-dasharray: none; stroke-linecap: butt; stroke-dashoffset: 0; stroke-linejoin: miter; stroke-miterlimit: 4; fill: rgb(105,61,22); fill-rule: nonzero; opacity: 1;" vector-effect="non-scaling-stroke"  x="-33.085" y="-33.085" rx="0" ry="0" width="66.17" height="66.17" />
</g>
<g transform="matrix(0.72 0 0 0.77 992.5 466.36)" id="ac8d1885-90a5-4079-be55-cf8bbd3a7f04"  >
<rect style="stroke: rgb(0,0,0); stroke-width: 0; stroke-dasharray: none; stroke-linecap: butt; stroke-dashoffset: 0; stroke-linejoin: miter; stroke-miterlimit: 4; fill: rgb(88,50,16); fill-rule: nonzero; opacity: 1;" vector-effect="non-scaling-stroke"  x="-33.085" y="-33.085" rx="0" ry="0" width="66.17" height="66.17" />
</g>
<g transform="matrix(1 0 0 0.71 692.03 250.44)" id="ac8d1885-90a5-4079-be55-cf8bbd3a7f04"  >
<rect style="stroke: rgb(0,0,0); stroke-width: 0; stroke-dasharray: none; stroke-linecap: butt; stroke-dashoffset: 0; stroke-linejoin: miter; stroke-miterlimit: 4; fill: rgb(105,61,22); fill-rule: nonzero; opacity: 1;" vector-effect="non-scaling-stroke"  x="-33.085" y="-33.085" rx="0" ry="0" width="66.17" height="66.17" />
</g>
<g transform="matrix(0.72 0 0 0.77 691.83 233.73)" id="ac8d1885-90a5-4079-be55-cf8bbd3a7f04"  >
<rect style="stroke: rgb(0,0,0); stroke-width: 0; stroke-dasharray: none; stroke-linecap: butt; stroke-dashoffset: 0; stroke-linejoin: miter; stroke-miterlimit: 4; fill: rgb(88,50,16); fill-rule: nonzero; opacity: 1;" vector-effect="non-scaling-stroke"  x="-33.085" y="-33.085" rx="0" ry="0" width="66.17" height="66.17" />
</g>
<g transform="matrix(1 0 0 0.71 799.68 340.33)" id="ac8d1885-90a5-4079-be55-cf8bbd3a7f04"  >
<rect style="stroke: rgb(0,0,0); stroke-width: 0; stroke-dasharray: none; stroke-linecap: butt; stroke-dashoffset: 0; stroke-linejoin: miter; stroke-miterlimit: 4; fill: rgb(105,61,22); fill-rule: nonzero; opacity: 1;" vector-effect="non-scaling-stroke"  x="-33.085" y="-33.085" rx="0" ry="0" width="66.17" height="66.17" />
</g>
<g transform="matrix(0.72 0 0 0.77 799.5 323.63)" id="ac8d1885-90a5-4079-be55-cf8bbd3a7f04"  >
<rect style="stroke: rgb(0,0,0); stroke-width: 0; stroke-dasharray: none; stroke-linecap: butt; stroke-dashoffset: 0; stroke-linejoin: miter; stroke-miterlimit: 4; fill: rgb(88,50,16); fill-rule: nonzero; opacity: 1;" vector-effect="non-scaling-stroke"  x="-33.085" y="-33.085" rx="0" ry="0" width="66.17" height="66.17" />
</g>
<g transform="matrix(1 0 0 0.71 800.8 442.06)" id="ac8d1885-90a5-4079-be55-cf8bbd3a7f04"  >
<rect style="stroke: rgb(0,0,0); stroke-width: 0; stroke-dasharray: none; stroke-linecap: butt; stroke-dashoffset: 0; stroke-linejoin: miter; stroke-miterlimit: 4; fill: rgb(105,61,22); fill-rule: nonzero; opacity: 1;" vector-effect="non-scaling-stroke"  x="-33.085" y="-33.085" rx="0" ry="0" width="66.17" height="66.17" />
</g>
<g transform="matrix(0.72 0 0 0.77 800.63 425.35)" id="ac8d1885-90a5-4079-be55-cf8bbd3a7f04"  >
<rect style="stroke: rgb(0,0,0); stroke-width: 0; stroke-dasharray: none; stroke-linecap: butt; stroke-dashoffset: 0; stroke-linejoin: miter; stroke-miterlimit: 4; fill: rgb(88,50,16); fill-rule: nonzero; opacity: 1;" vector-effect="non-scaling-stroke"  x="-33.085" y="-33.085" rx="0" ry="0" width="66.17" height="66.17" />
</g>
<g transform="matrix(1 0 0 0.71 582.96 330.74)" id="ac8d1885-90a5-4079-be55-cf8bbd3a7f04"  >
<rect style="stroke: rgb(0,0,0); stroke-width: 0; stroke-dasharray: none; stroke-linecap: butt; stroke-dashoffset: 0; stroke-linejoin: miter; stroke-miterlimit: 4; fill: rgb(105,61,22); fill-rule: nonzero; opacity: 1;" vector-effect="non-scaling-stroke"  x="-33.085" y="-33.085" rx="0" ry="0" width="66.17" height="66.17" />
</g>
<g transform="matrix(0.72 0 0 0.77 582.82 314.04)" id="ac8d1885-90a5-4079-be55-cf8bbd3a7f04"  >
<rect style="stroke: rgb(0,0,0); stroke-width: 0; stroke-dasharray: none; stroke-linecap: butt; stroke-dashoffset: 0; stroke-linejoin: miter; stroke-miterlimit: 4; fill: rgb(88,50,16); fill-rule: nonzero; opacity: 1;" vector-effect="non-scaling-stroke"  x="-33.085" y="-33.085" rx="0" ry="0" width="66.17" height="66.17" />
</g>
<g transform="matrix(1 0 0 0.71 581.12 441.34)" id="ac8d1885-90a5-4079-be55-cf8bbd3a7f04"  >
<rect style="stroke: rgb(0,0,0); stroke-width: 0; stroke-dasharray: none; stroke-linecap: butt; stroke-dashoffset: 0; stroke-linejoin: miter; stroke-miterlimit: 4; fill: rgb(105,61,22); fill-rule: nonzero; opacity: 1;" vector-effect="non-scaling-stroke"  x="-33.085" y="-33.085" rx="0" ry="0" width="66.17" height="66.17" />
</g>
<g transform="matrix(0.72 0 0 0.77 581 424.64)" id="ac8d1885-90a5-4079-be55-cf8bbd3a7f04"  >
<rect style="stroke: rgb(0,0,0); stroke-width: 0; stroke-dasharray: none; stroke-linecap: butt; stroke-dashoffset: 0; stroke-linejoin: miter; stroke-miterlimit: 4; fill: rgb(88,50,16); fill-rule: nonzero; opacity: 1;" vector-effect="non-scaling-stroke"  x="-33.085" y="-33.085" rx="0" ry="0" width="66.17" height="66.17" />
</g>
</svg>